<?xml version="1.0" encoding="iso-8859-1"?>
<!-- Uploaded to: SVG Repo, www.svgrepo.com, Generator: SVG Repo Mixer Tools -->
<svg fill="#000000" height="800px" width="800px" version="1.1" id="Layer_1" xmlns="http://www.w3.org/2000/svg" xmlns:xlink="http://www.w3.org/1999/xlink" 
	 viewBox="0 0 330 330" xml:space="preserve">
<path id="XMLID_494_" d="M175.59,4.393C172.776,1.58,168.961,0,164.983,0c-3.979,0.001-7.793,1.581-10.606,4.395
	C150.114,8.657,49.992,110.003,49.992,215.016C49.992,278.418,101.577,330,164.984,330c63.424,0,115.024-51.582,115.024-114.984
	C280.008,110.002,179.853,8.655,175.59,4.393z M164.984,300c-46.864,0-84.991-38.124-84.991-84.984
	c0-73.72,60.105-149.624,85.003-177.899c24.914,28.239,85.012,104.023,85.012,177.899C250.008,261.876,211.866,300,164.984,300z"/>
</svg>