<?xml version="1.0" encoding="iso-8859-1"?>
<!-- Uploaded to: SVG Repo, www.svgrepo.com, Generator: SVG Repo Mixer Tools -->
<svg fill="#000000" height="800px" width="800px" version="1.1" id="Layer_1" xmlns="http://www.w3.org/2000/svg" xmlns:xlink="http://www.w3.org/1999/xlink" 
	 viewBox="0 0 330.003 330.003" xml:space="preserve">
<g id="XMLID_102_">
	<path id="XMLID_103_" d="M291.823,261.641c-7.375-3.767-16.411-0.841-20.181,6.537l-10.213,20
		c-3.768,7.378-0.841,16.413,6.538,20.181c2.185,1.116,4.514,1.645,6.81,1.645c5.456,0,10.719-2.989,13.371-8.182l10.213-20
		C302.129,274.444,299.202,265.409,291.823,261.641z"/>
	<path id="XMLID_104_" d="M215.227,281.641c-7.377-3.767-16.413-0.84-20.181,6.538l-10.212,20
		c-3.768,7.378-0.84,16.414,6.538,20.181c2.185,1.115,4.514,1.643,6.81,1.643c5.457,0,10.719-2.988,13.371-8.182l10.212-20
		C225.533,294.443,222.605,285.408,215.227,281.641z"/>
	<path id="XMLID_105_" d="M62.036,281.641c-7.375-3.767-16.412-0.84-20.181,6.537l-10.213,20
		c-3.768,7.378-0.841,16.413,6.538,20.181c2.185,1.116,4.514,1.645,6.81,1.645c5.456,0,10.719-2.989,13.371-8.182l10.213-20
		C72.341,294.444,69.415,285.409,62.036,281.641z"/>
	<path id="XMLID_106_" d="M138.632,261.641c-7.376-3.767-16.412-0.841-20.181,6.537l-10.213,20
		c-3.768,7.378-0.841,16.413,6.538,20.181c2.185,1.116,4.514,1.645,6.81,1.645c5.456,0,10.719-2.989,13.371-8.182l10.213-20
		C148.937,274.444,146.01,265.409,138.632,261.641z"/>
	<path id="XMLID_107_" d="M245.002,59.96h-1.668C229.163,24.135,194.358,0,155.002,0c-50.929,0-92.625,40.282-94.902,90.658
		C26.172,95.481,0.002,124.721,0.002,159.96c0,38.598,31.401,70,70,70h175c46.869,0,85-38.131,85-85
		C330.002,98.091,291.871,59.96,245.002,59.96z M245.002,199.96h-175c-22.056,0-40-17.944-40-40c0-22.056,17.944-40,40-40h5
		c8.284,0,15-6.716,15-15V95c0-35.841,29.159-65,65-65c29.663,0,55.546,20.029,62.943,48.706
		c1.708,6.625,7.683,11.254,14.524,11.254h12.532c30.327,0,55,24.673,55,55C300.002,175.287,275.329,199.96,245.002,199.96z"/>
</g>
</svg>